<svg width="485" height="485" viewBox="0 0 485 485" fill="none" xmlns="http://www.w3.org/2000/svg">
<path d="M321.27 328.414C305.001 328.414 284.188 321.162 274.097 315.107L264.354 354.303C277.661 361.555 298.22 366.602 321.27 366.602C371.631 366.602 397.646 342.478 397.646 309.59C397.267 283.699 383.234 266.703 349.714 255.257C328.177 247.626 321.396 243.305 321.396 235.044C321.396 226.056 328.902 220.632 342.209 220.632C357.345 220.632 372.386 226.435 380.394 230.754L390.108 192.915C379.291 187.491 360.94 182.824 340.348 182.824C296.768 182.824 268.672 207.704 268.672 240.468C268.293 261.406 282.327 281.242 318.811 293.444C339.243 300.35 344.667 304.638 344.667 313.626C344.668 322.644 337.762 328.414 321.27 328.414Z" fill="#4070F4"/>
<path d="M141.687 276.194C146.732 276.92 153.26 277.172 160.385 277.172C192.802 277.172 220.615 269.289 239.219 251.693C253.758 238.007 261.639 217.794 261.639 194.05C261.639 170.273 251.296 150.06 235.656 137.856C219.51 124.801 195.388 118.4 161.489 118.4C128 118.4 104.225 120.61 87.353 123.446V363.039H141.686V276.194H141.687ZM141.782 162.012C145.629 160.907 153.261 159.803 164.329 159.803C191.794 159.803 207.214 173.079 207.339 195.375C207.339 220.286 189.207 235.044 160.039 235.044C152.155 235.044 146.48 234.698 141.782 233.687V162.012V162.012Z" fill="#4070F4"/>
<path d="M0 0V485H485V0H0ZM455 455H30V30H455V455Z" fill="#4070F4"/>
</svg>
